HIERARCHY
ROOT Hips
{
 OFFSET 0.000000 0.000000 0.000000
 CHANNELS 6 Xposition Yposition Zposition Yrotation Xrotation Zrotation
 JOINT Chest
 {
  OFFSET 0.000000 9.585900 0.002600
  CHANNELS 3 Yrotation Xrotation Zrotation
  JOINT Chest2
  {
   OFFSET 0.000000 9.601200 -0.005300
   CHANNELS 3 Yrotation Xrotation Zrotation
   JOINT Chest3
   {
    OFFSET 0.000000 9.561800 0.000000
    CHANNELS 3 Yrotation Xrotation Zrotation
    JOINT Chest4
    {
     OFFSET 0.000000 9.552100 0.000000
     CHANNELS 3 Yrotation Xrotation Zrotation
     JOINT Neck
     {
      OFFSET 0.000000 14.453000 0.000000
      CHANNELS 3 Yrotation Xrotation Zrotation
      JOINT Head
      {
       OFFSET 0.000000 8.936500 -0.011300
       CHANNELS 3 Yrotation Xrotation Zrotation
       End Site
       {
        OFFSET 0.000000 17.073600 -0.006000
       }
      }
     }
     JOINT RightCollar
     {
      OFFSET -2.921100 9.558500 0.000000
      CHANNELS 3 Yrotation Xrotation Zrotation
      JOINT RightShoulder
      {
       OFFSET -13.519700 0.000000 0.000000
       CHANNELS 3 Yrotation Xrotation Zrotation
       JOINT RightElbow
       {
        OFFSET 0.000000 -29.696600 0.000000
        CHANNELS 3 Yrotation Xrotation Zrotation
        JOINT RightWrist
        {
         OFFSET 0.000000 -24.004700 0.000000
         CHANNELS 3 Yrotation Xrotation Zrotation
         End Site
         {
          OFFSET 0.000000 -17.728500 0.000000
         }
        }
       }
      }
     }
     JOINT LeftCollar
     {
      OFFSET 2.921100 9.558500 0.000000
      CHANNELS 3 Yrotation Xrotation Zrotation
      JOINT LeftShoulder
      {
       OFFSET 13.519700 0.000000 0.000000
       CHANNELS 3 Yrotation Xrotation Zrotation
       JOINT LeftElbow
       {
        OFFSET 0.000000 -29.696600 0.000000
        CHANNELS 3 Yrotation Xrotation Zrotation
        JOINT LeftWrist
        {
         OFFSET 0.000000 -24.004700 0.000000
         CHANNELS 3 Yrotation Xrotation Zrotation
         End Site
         {
          OFFSET 0.000000 -17.728500 0.000000
         }
        }
       }
      }
     }
    }
   }
  }
 }
 JOINT RightHip
 {
  OFFSET -7.771700 -0.012900 -0.001300
  CHANNELS 3 Yrotation Xrotation Zrotation
  JOINT RightKnee
  {
   OFFSET 0.000000 -40.869800 0.001200
   CHANNELS 3 Yrotation Xrotation Zrotation
   JOINT RightAnkle
   {
    OFFSET 0.000000 -39.717900 0.002100
    CHANNELS 3 Yrotation Xrotation Zrotation
    JOINT RightToe
    {
     OFFSET 0.000000 -4.965400 11.033500
     CHANNELS 3 Yrotation Xrotation Zrotation
     End Site
     {
      OFFSET 0.000000 -1.423100 5.872300
     }
    }
   }
  }
 }
 JOINT LeftHip
 {
  OFFSET 7.771700 -0.012900 -0.001300
  CHANNELS 3 Yrotation Xrotation Zrotation
  JOINT LeftKnee
  {
   OFFSET 0.000000 -40.869800 0.001200
   CHANNELS 3 Yrotation Xrotation Zrotation
   JOINT LeftAnkle
   {
    OFFSET 0.000000 -39.717900 0.002100
    CHANNELS 3 Yrotation Xrotation Zrotation
    JOINT LeftToe
    {
     OFFSET 0.000000 -4.965400 11.033500
     CHANNELS 3 Yrotation Xrotation Zrotation
     End Site
     {
      OFFSET 0.000000 -1.423100 5.872300
     }
    }
   }
  }
 }
}
MOTION
Frames: 5
Frame Time: 0.008333
-26.696009 56.169708 35.813623 -169.303031 -29.665229 -11.478767 -3.205070 14.551796 8.110643 -2.362252 8.267866 2.211803 -2.902675 10.406383 2.734427 -2.353563 8.278615 2.218021 -5.209038 21.398147 -3.926256 -4.734202 -2.755179 -3.051879 3.105889 0.869816 -2.896275 -1.335588 -9.698058 0.377301 92.493945 -47.296489 -68.962157 15.214792 -1.896156 -15.022296 -11.063668 0.921318 -4.313982 -3.423393 -4.958828 1.535648 -82.404212 -40.219821 77.555899 -0.948410 -11.717731 8.026819 -23.390908 -29.708101 4.524391 62.751372 87.161734 60.102954 2.763562 -23.911866 0.135514 -1.856044 2.179623 -0.966529 -17.217286 -46.259977 8.823816 170.443960 72.242104 168.476263 0.447281 -20.849707 -2.138207 -2.283822 -4.110947 -0.952065
-26.697118 56.165014 35.833000 -169.317529 -29.666496 -11.484816 -3.207973 14.618095 8.128931 -2.338033 8.249727 2.215979 -2.895250 10.415192 2.740444 -2.347021 8.273784 2.220261 -5.002363 21.434798 -3.899197 -4.515450 -2.741546 -3.069783 3.118075 0.895017 -2.896264 -1.369116 -9.631103 0.369088 92.767273 -47.171685 -69.264447 15.289438 -1.841238 -15.017477 -11.037179 0.951620 -4.317335 -3.460268 -5.019983 1.533965 -82.437863 -40.212211 77.591073 -0.966625 -11.751639 8.023023 -23.409821 -29.740367 4.540899 62.754188 87.174198 60.108233 2.761727 -23.798751 0.159076 -1.844336 2.177935 -0.960430 -17.222378 -46.292053 8.786878 170.368864 72.223213 168.439399 0.509318 -20.783869 -2.184753 -2.305251 -4.138548 -0.964738
-26.697992 56.157808 35.854756 -169.350538 -29.644198 -11.472256 -3.193844 14.619243 8.134783 -2.331969 8.263802 2.221764 -2.885072 10.426451 2.746306 -2.344497 8.237635 2.214521 -4.790064 21.509862 -3.867271 -4.294674 -2.720291 -3.088074 3.134023 0.952861 -2.888686 -1.393738 -9.563696 0.366030 93.037668 -47.020693 -69.565089 15.370690 -1.783547 -15.024537 -11.009722 1.003115 -4.322861 -3.486666 -5.016301 1.518171 -82.561958 -40.174931 77.715029 -1.001738 -11.779718 8.036587 -23.412767 -29.791322 4.555441 62.551999 87.175999 59.918455 2.762288 -23.731481 0.154302 -1.828786 2.204975 -0.943354 -17.211831 -46.325408 8.780651 170.385298 72.233743 168.483136 0.488765 -20.799848 -2.211983 -2.265887 -4.074669 -0.960065
-26.698380 56.153528 35.869586 -169.356729 -29.653441 -11.475368 -3.196473 14.656489 8.140457 -2.331794 8.312496 2.233423 -2.869913 10.376243 2.740498 -2.336577 8.274822 2.224386 -4.585347 21.542705 -3.844610 -4.072352 -2.693967 -3.108377 3.143268 0.966150 -2.895547 -1.410247 -9.501581 0.368187 93.301405 -46.849406 -69.861759 15.453787 -1.727161 -15.038353 -10.985666 1.006813 -4.331940 -3.499334 -4.969576 1.486710 -82.729109 -40.123089 77.902623 -0.978102 -11.758019 8.034020 -23.428258 -29.802755 4.564133 62.554817 87.172680 59.915385 2.761865 -23.661997 0.163910 -1.829353 2.228940 -0.927045 -17.203670 -46.347502 8.727066 170.295837 72.212553 168.436237 0.535026 -20.740867 -2.243631 -2.288801 -4.093028 -0.981529
-26.691494 56.150426 35.881530 -169.367913 -29.665148 -11.514560 -3.182897 14.700571 8.186582 -2.325997 8.324358 2.237023 -2.862645 10.359762 2.741284 -2.329096 8.365755 2.241150 -4.380753 21.525582 -3.829492 -3.850643 -2.666668 -3.130576 3.151222 0.927551 -2.914724 -1.416385 -9.447467 0.373702 93.548309 -46.663103 -70.146291 15.534344 -1.680218 -15.054693 -10.961104 0.956933 -4.340439 -3.516340 -4.974932 1.477559 -82.880173 -40.058215 78.053604 -0.951021 -11.749138 8.019439 -23.444446 -29.794661 4.605838 62.491689 87.156948 59.860803 2.762899 -23.573825 0.202305 -1.840395 2.248573 -0.939929 -17.224952 -46.368677 8.703946 170.138392 72.168657 168.332770 0.637988 -20.656506 -2.258210 -2.379748 -4.136099 -1.041690
